<svg viewBox="0 0 49 20" fill="none" xmlns="http://www.w3.org/2000/svg"> <path d="M9.22625 3.89145C8.04187 3.89145 7.0864 4.62878 6.46933 4.62878C5.82239 4.62878 4.9565 3.93241 3.93136 3.93241C1.98061 3.93241 0 5.60164 0 8.72504C0 10.681 0.736508 12.7394 1.64221 14.0809C2.40858 15.1971 3.09532 16.1188 4.0707 16.1188C5.03612 16.1188 5.46409 15.4634 6.66838 15.4634C7.88262 15.4634 8.1613 16.0983 9.22625 16.0983C10.2912 16.0983 10.9979 15.105 11.6647 14.1219C12.4012 12.9852 12.7197 11.8792 12.7296 11.828C12.6699 11.8075 10.6396 10.9575 10.6396 8.56119C10.6396 6.49258 12.232 5.57092 12.3216 5.49923C11.2765 3.93241 9.67413 3.89145 9.22625 3.89145ZM8.67885 2.5704C9.15658 1.96621 9.49498 1.14695 9.49498 0.31746C9.49498 0.204813 9.48503 0.0921659 9.46512 0C8.6888 0.030722 7.73333 0.532514 7.16602 1.21864C6.7281 1.74091 6.31008 2.5704 6.31008 3.3999C6.31008 3.52279 6.32999 3.65591 6.33994 3.69688C6.3897 3.70712 6.46933 3.71736 6.54895 3.71736C7.2556 3.71736 8.15135 3.22581 8.67885 2.5704Z" fill="white"/> <path d="M16.6419 1.15719V15.9345H19.2098V11.0906H22.325C25.2312 11.0906 27.2616 9.08346 27.2616 6.15463C27.2616 3.1746 25.3009 1.15719 22.4345 1.15719H16.6419ZM19.2098 3.36918H21.7577C23.6089 3.36918 24.6539 4.34204 24.6539 6.15463C24.6539 7.91603 23.579 8.89913 21.7477 8.89913H19.2098V3.36918Z" fill="white"/> <path d="M32.0796 14.1219C30.9848 14.1219 30.1985 13.5586 30.1985 12.6165C30.1985 11.7051 30.8454 11.193 32.2289 11.1009L34.6872 10.937V11.828C34.6872 13.1285 33.5725 14.1219 32.0796 14.1219ZM31.353 16.1188C32.7763 16.1188 33.9706 15.4839 34.5777 14.3984H34.7469V15.9345H37.1256V8.28469C37.1256 5.90886 35.5531 4.50589 32.7564 4.50589C30.1686 4.50589 28.3672 5.76549 28.1681 7.74194H30.4971C30.726 6.98413 31.5023 6.5745 32.6369 6.5745C33.9706 6.5745 34.6872 7.18894 34.6872 8.28469V9.22683L31.8805 9.40092C29.2331 9.56477 27.7501 10.7322 27.7501 12.7599C27.7501 14.808 29.253 16.1188 31.353 16.1188Z" fill="white"/> <path d="M39.8735 20C42.3119 20 43.4764 19.0783 44.402 16.2929L48.3333 4.73118H45.7257L43.1877 13.4767H43.0185L40.4706 4.73118H37.7635L41.655 15.9857L41.5256 16.4772C41.2071 17.5115 40.6199 17.9211 39.5749 17.9211C39.4057 17.9211 39.0374 17.9109 38.8981 17.8802V19.959C39.0573 19.9898 39.7242 20 39.8735 20Z" fill="white"/> </svg>
							