<svg width="24" height="24" viewBox="0 0 24 24" fill="none" xmlns="http://www.w3.org/2000/svg">
<path d="M4.20459 4.42266L4.30563 4.30563C4.67609 3.93517 5.25579 3.90149 5.66429 4.20459L5.78133 4.30563L12 10.5238L18.2187 4.30563C18.6262 3.89812 19.2869 3.89812 19.6944 4.30563C20.1019 4.71313 20.1019 5.37383 19.6944 5.78133L13.4762 12L19.6944 18.2187C20.0648 18.5891 20.0985 19.1688 19.7954 19.5773L19.6944 19.6944C19.3239 20.0648 18.7442 20.0985 18.3357 19.7954L18.2187 19.6944L12 13.4762L5.78133 19.6944C5.37383 20.1019 4.71313 20.1019 4.30563 19.6944C3.89812 19.2869 3.89812 18.6262 4.30563 18.2187L10.5238 12L4.30563 5.78133C3.93517 5.41087 3.90149 4.83117 4.20459 4.42266L4.30563 4.30563L4.20459 4.42266Z" fill="white"/>
</svg>
