<svg width="53" height="20" viewBox="0 0 53 20" fill="none" xmlns="http://www.w3.org/2000/svg"> <path d="M24.7809 15.6237H22.8841V1.06226H27.9125C29.1869 1.06226 30.2736 1.48136 31.1627 2.31957C32.0715 3.15778 32.5259 4.18118 32.5259 5.38976C32.5259 6.62758 32.0715 7.65098 31.1627 8.47944C30.2834 9.30791 29.1968 9.71726 27.9125 9.71726H24.7809V15.6237ZM24.7809 2.85564V7.93363H27.952C28.7028 7.93363 29.3351 7.68022 29.829 7.18314C30.3328 6.68606 30.5897 6.08177 30.5897 5.39951C30.5897 4.72699 30.3328 4.13245 29.829 3.63537C29.3351 3.1188 28.7127 2.86538 27.952 2.86538H24.7809V2.85564Z" fill="white"/> <path d="M37.4852 5.33126C38.888 5.33126 39.9944 5.70163 40.8045 6.44237C41.6146 7.18312 42.0196 8.19677 42.0196 9.48332V15.6237H40.2118V14.2397H40.1327C39.3523 15.38 38.3051 15.9453 37.0011 15.9453C35.8848 15.9453 34.9562 15.6237 34.2054 14.9707C33.4546 14.3176 33.0792 13.5087 33.0792 12.534C33.0792 11.5009 33.4743 10.6822 34.2647 10.0779C35.055 9.46383 36.112 9.16168 37.4259 9.16168C38.5521 9.16168 39.4807 9.36636 40.2019 9.77572V9.34687C40.2019 8.69384 39.945 8.14803 39.4214 7.68994C38.8979 7.23185 38.2854 7.00767 37.584 7.00767C36.5269 7.00767 35.6872 7.44627 35.0747 8.33322L33.4052 7.30007C34.3239 5.98428 35.6872 5.33126 37.4852 5.33126ZM35.0352 12.5633C35.0352 13.0506 35.2427 13.4599 35.6675 13.7816C36.0824 14.1032 36.5763 14.2689 37.1394 14.2689C37.9396 14.2689 38.6509 13.9765 39.2733 13.3917C39.8956 12.8069 40.2118 12.1247 40.2118 11.3352C39.619 10.8771 38.7991 10.6432 37.742 10.6432C36.9715 10.6432 36.3293 10.8284 35.8156 11.189C35.2921 11.5691 35.0352 12.0272 35.0352 12.5633Z" fill="white"/> <path d="M52.3332 5.65293L46.0107 20H44.0547L46.4059 14.9805L42.237 5.65293H44.3016L47.3048 12.807H47.3443L50.2685 5.65293H52.3332Z" fill="white"/> <path d="M17.2365 8.53796C17.2365 7.92782 17.1812 7.344 17.0785 6.78259H9.12793V9.99898L13.7068 9.99996C13.5211 11.0701 12.9234 11.9824 12.0076 12.5906V14.6774H14.7332C16.3247 13.2241 17.2365 11.076 17.2365 8.53796Z" fill="#4285F4"/> <path d="M12.0084 12.5907C11.2497 13.0955 10.2727 13.3909 9.12967 13.3909C6.92174 13.3909 5.0487 11.923 4.37792 9.94446H1.56639V12.0965C2.95932 14.8236 5.82222 16.695 9.12967 16.695C11.4157 16.695 13.3361 15.9533 14.734 14.6765L12.0084 12.5907Z" fill="#298F44"/> <path d="M4.11337 8.34816C4.11337 7.7926 4.20722 7.25557 4.37812 6.75069V4.59863H1.56659C0.990652 5.72632 0.666626 6.99923 0.666626 8.34816C0.666626 9.69709 0.99164 10.97 1.56659 12.0977L4.37812 9.94564C4.20722 9.44076 4.11337 8.90372 4.11337 8.34816Z" fill="#FABB05"/> <path d="M9.12967 3.30411C10.3774 3.30411 11.4947 3.72809 12.3769 4.55655L14.7923 2.17545C13.3252 0.82749 11.4127 0 9.12967 0C5.82321 0 2.95932 1.87135 1.56639 4.59846L4.37792 6.75052C5.0487 4.77195 6.92174 3.30411 9.12967 3.30411Z" fill="#E94235"/> </svg>
							