<svg viewBox="0 0 20 20" fill="none" xmlns="http://www.w3.org/2000/svg">
<path d="M9.99387 2.00771C6.71967 2.00771 3.6105 1.71645 2.42291 4.76431C1.93237 6.02313 2.00361 7.65797 2.00361 9.99887C2.00361 12.053 1.93778 13.9836 2.42291 15.2325C3.60779 18.2822 6.74222 17.99 9.99206 17.99C13.1274 17.99 16.3601 18.3165 17.5621 15.2325C18.0536 13.9611 17.9814 12.3506 17.9814 9.99887C17.9814 6.87707 18.1537 4.8617 16.6396 3.34859C15.1067 1.81564 13.0336 2.00771 9.99026 2.00771H9.99387ZM9.27789 3.44778C16.1076 3.43696 16.9769 2.6777 16.4972 13.2253C16.3267 16.9557 13.4863 16.5464 9.99477 16.5464C3.62853 16.5464 3.44548 16.3642 3.44548 9.99527C3.44548 3.55238 3.95045 3.45139 9.27789 3.44598V3.44778ZM14.2591 4.77423C13.7297 4.77423 13.3005 5.20346 13.3005 5.73277C13.3005 6.26209 13.7297 6.69132 14.2591 6.69132C14.7884 6.69132 15.2176 6.26209 15.2176 5.73277C15.2176 5.20346 14.7884 4.77423 14.2591 4.77423ZM9.99387 5.89508C7.72781 5.89508 5.89098 7.73282 5.89098 9.99887C5.89098 12.2649 7.72781 14.1018 9.99387 14.1018C12.2599 14.1018 14.0959 12.2649 14.0959 9.99887C14.0959 7.73282 12.2599 5.89508 9.99387 5.89508ZM9.99387 7.33515C13.5151 7.33515 13.5196 12.6626 9.99387 12.6626C6.4735 12.6626 6.46809 7.33515 9.99387 7.33515Z" fill="#34D186"/>
</svg>
