<svg viewBox="0 0 20 20" fill="none" xmlns="http://www.w3.org/2000/svg"> <mask id="mask0_38_564" style="mask-type:luminance" maskUnits="userSpaceOnUse" x="1" y="1" width="18" height="18"> <path d="M1.25 9.98181C1.25384 8.13406 1.84253 6.33496 2.93168 4.84233C4.02084 3.3497 5.55455 2.24018 7.31303 1.67277C9.07151 1.10536 10.9645 1.10919 12.7206 1.68372C14.4768 2.25824 16.006 3.37397 17.0891 4.871C18.1722 6.36802 18.7536 8.16951 18.75 10.0173C18.7463 11.865 18.1578 13.6642 17.0688 15.1569C15.9798 16.6497 14.4462 17.7594 12.6878 18.3269C10.9294 18.8945 9.03643 18.8909 7.28021 18.3166C7.90391 14.6968 10.1886 11.7454 13.2078 10.493C13.5064 10.8393 13.9171 11.0698 14.3682 11.1441C14.8194 11.2184 15.2823 11.1318 15.6761 10.8995C16.07 10.6672 16.3697 10.304 16.5229 9.87318C16.6761 9.44239 16.6732 8.97146 16.5145 8.54265C16.3558 8.11383 16.0516 7.75437 15.6549 7.52707C15.2581 7.29976 14.7942 7.21906 14.344 7.29904C13.8938 7.37902 13.486 7.61461 13.1919 7.96465C12.8977 8.3147 12.7359 8.75696 12.7347 9.21418C8.88164 10.3722 5.75983 13.0639 4.17494 16.5216C3.67187 16.0711 3.22224 15.5643 2.8349 15.0111C2.86414 13.4313 3.26395 11.8803 4.00215 10.4832C4.74035 9.08615 5.79631 7.88194 7.08499 6.96754C7.38904 7.30767 7.80269 7.53045 8.254 7.59716C8.70531 7.66386 9.16572 7.57025 9.55516 7.33262C9.94459 7.09499 10.2384 6.72836 10.3855 6.29651C10.5326 5.86467 10.5237 5.39492 10.3603 4.96897C10.1969 4.54303 9.88933 4.18784 9.49114 3.96518C9.09295 3.74252 8.62931 3.66648 8.18086 3.75028C7.73241 3.83409 7.32753 4.07244 7.03663 4.42388C6.74573 4.77532 6.58722 5.21761 6.58868 5.67382C6.58868 5.72842 6.58868 5.78632 6.59695 5.83926C4.32125 6.61967 2.416 8.2166 1.25 10.321C1.25 10.2101 1.25 10.096 1.25 9.99008" fill="white"/> </mask> <g mask="url(#mask0_38_564)"> <mask id="mask1_38_564" style="mask-type:luminance" maskUnits="userSpaceOnUse" x="-123" y="-86" width="239" height="558"> <path d="M115.567 -85.1448H-122.663V471.719H115.567V-85.1448Z" fill="white"/> </mask> <g mask="url(#mask1_38_564)"> <path d="M19.6137 0.386353H0.422913V19.5771H19.6137V0.386353Z" fill="white"/> </g> </g> </svg>