<svg viewBox="0 0 97 20" fill="none" xmlns="http://www.w3.org/2000/svg"> <g clip-path="url(#clip0_38_507)"> <path fill-rule="evenodd" clip-rule="evenodd" d="M81.1464 15.4961L80.926 15.3071C80.3909 14.8504 80.2965 14.0158 80.7844 13.4803L86.5129 6.92917C86.9693 6.39374 87.8034 6.29925 88.3385 6.78744L88.5588 6.97641C89.0939 7.43311 89.1883 8.26775 88.7005 8.80318L82.9719 15.3544C82.5155 15.8898 81.7129 15.9528 81.1464 15.4961Z" fill="url(#paint0_linear_38_507)"/> <path opacity="0.4" fill-rule="evenodd" clip-rule="evenodd" d="M87.6306 10.0315L87.8668 9.7638C87.8826 9.7323 87.9141 9.70081 87.9298 9.66931C87.6779 9.95278 87.4101 10.252 87.1582 10.5512C87.3471 10.3465 87.5046 10.1732 87.6306 10.0315Z" fill="url(#paint1_radial_38_507)"/> <path fill-rule="evenodd" clip-rule="evenodd" d="M88.732 7.13392L83.0034 0.582732C82.547 0.0473 81.7129 -0.0471882 81.1779 0.441L80.9575 0.629976C80.4224 1.08667 80.328 1.92132 80.8159 2.45676L85.6474 7.93707L85.7575 8.06306C87.1897 9.49613 86.7018 10.9134 86.3398 11.5119C86.6231 11.1812 86.9064 10.8505 87.1739 10.5512C87.4257 10.252 87.6933 9.95282 87.9451 9.66935C88.1969 9.38589 88.4329 9.11817 88.5903 8.94494C89.1411 8.40951 89.2198 7.66935 88.732 7.13392Z" fill="url(#paint2_linear_38_507)"/> <path fill-rule="evenodd" clip-rule="evenodd" d="M88.4172 15.4961L88.1969 15.3071C87.6618 14.8504 87.5674 14.0158 88.0552 13.4803L93.7837 6.92917C94.2401 6.39374 95.0742 6.29925 95.6093 6.78744L95.8296 6.97641C96.3647 7.43311 96.4592 8.26775 95.9713 8.80318L90.2428 15.3544C89.7864 15.8898 88.9837 15.9528 88.4172 15.4961Z" fill="url(#paint3_linear_38_507)"/> <path opacity="0.4" fill-rule="evenodd" clip-rule="evenodd" d="M94.8857 10.0315L95.1219 9.7638C95.1377 9.7323 95.1692 9.70081 95.1849 9.66931C94.933 9.95278 94.6652 10.252 94.4133 10.5512C94.6022 10.3465 94.7755 10.1732 94.8857 10.0315Z" fill="url(#paint4_radial_38_507)"/> <path fill-rule="evenodd" clip-rule="evenodd" d="M95.987 7.13392L90.2585 0.582732C89.8021 0.0473 88.968 -0.0471882 88.4329 0.441L88.2126 0.629976C87.6775 1.08667 87.5831 1.92132 88.0709 2.45676L92.9024 7.93707L93.0126 8.06306C94.4447 9.49613 93.9568 10.9134 93.5949 11.5119C93.8782 11.1812 94.1614 10.8505 94.429 10.5512C94.6808 10.252 94.9483 9.95282 95.2001 9.66935C95.4519 9.38589 95.688 9.11817 95.8454 8.94494C96.3962 8.40951 96.4749 7.66935 95.987 7.13392Z" fill="url(#paint5_linear_38_507)"/> <path fill-rule="evenodd" clip-rule="evenodd" d="M0.695229 15.4331C0.474901 15.2126 0.348999 14.8819 0.348999 14.4724V1.51181C0.348999 1.08661 0.474901 0.7559 0.742442 0.488184C1.00998 0.220467 1.34048 0.0944824 1.76539 0.0944824C2.19031 0.0944824 2.56801 0.220467 2.81982 0.488184C3.08736 0.7559 3.21326 1.08661 3.21326 1.51181V13.4646H9.39818C10.2795 13.4646 10.7359 13.8583 10.7359 14.6299C10.7359 15.4016 10.2795 15.7953 9.39818 15.7953H1.6867C1.26179 15.7953 0.931295 15.6693 0.695229 15.4331Z" fill="white"/> <path fill-rule="evenodd" clip-rule="evenodd" d="M12.9706 15.5276C12.7031 15.2598 12.5772 14.9134 12.5772 14.4724V1.49606C12.5772 1.07086 12.7031 0.740153 12.9706 0.472436C13.2382 0.20472 13.5687 0.0787354 13.9936 0.0787354C14.4185 0.0787354 14.7962 0.20472 15.048 0.472436C15.3155 0.740153 15.4414 1.07086 15.4414 1.49606V14.4724C15.4414 14.8976 15.3155 15.2598 15.048 15.5276C14.7805 15.7953 14.4342 15.9213 13.9936 15.9213C13.5844 15.9213 13.2382 15.7953 12.9706 15.5276Z" fill="white"/> <path fill-rule="evenodd" clip-rule="evenodd" d="M31.8087 18.7402C31.8087 18.4724 31.7142 18.2205 31.5569 17.9527L30.77 16.7716C30.3136 16.0315 29.7628 15.5276 29.086 15.3071C30.3923 14.7244 31.3995 13.811 32.0919 12.5512C32.8001 11.3071 33.1464 9.77952 33.1464 8.03149C33.1464 6.40944 32.8473 4.99212 32.2493 3.79527C31.6513 2.61417 30.8014 1.68503 29.6841 1.02362C28.5824 0.393696 27.2605 0.0629883 25.7654 0.0629883C24.2388 0.0629883 22.9326 0.3622 21.8152 1.02362C20.7136 1.68503 19.848 2.59842 19.25 3.79527C18.6677 5.00787 18.3529 6.40944 18.3529 8.03149C18.3529 9.63779 18.6519 11.0551 19.25 12.2677C19.848 13.4488 20.6978 14.3779 21.8152 15.0394C22.9326 15.6693 24.2388 16 25.7654 16C26.3005 16 26.7254 16.0945 27.0559 16.252C27.3864 16.4094 27.6539 16.6614 27.8585 17.0079L29.149 19.1496C29.3064 19.3858 29.511 19.5748 29.7313 19.7008C29.9673 19.8268 30.2192 19.8898 30.4867 19.8898C30.8329 19.8898 31.1477 19.7638 31.4152 19.559C31.6828 19.3543 31.8087 19.0709 31.8087 18.7402ZM30.2978 7.99999C30.2978 9.82676 29.8887 11.2441 29.086 12.2362C28.2834 13.2283 27.166 13.7165 25.7339 13.7165C24.3018 13.7165 23.1687 13.2283 22.366 12.2362C21.5634 11.2441 21.1542 9.85826 21.1542 7.99999C21.1542 6.14172 21.5634 4.7559 22.366 3.76377C23.1687 2.78739 24.286 2.29921 25.7339 2.29921C27.1818 2.29921 28.2834 2.77165 29.086 3.76377C29.8887 4.7559 30.2978 6.14172 30.2978 7.99999Z" fill="white"/> <path fill-rule="evenodd" clip-rule="evenodd" d="M36.2152 14.4724C36.2152 14.9134 36.3411 15.2598 36.6087 15.5276C36.8447 15.7953 37.2067 15.9212 37.6316 15.937C38.0723 15.937 38.4185 15.811 38.686 15.5433C38.9536 15.2913 39.0795 14.9449 39.0795 14.4882V9.73226H43.0296C44.6978 9.73226 45.9883 9.32283 46.9168 8.47242C47.8454 7.63777 48.3175 6.45667 48.3175 4.96061C48.3175 3.46455 47.8454 2.28344 46.9168 1.46455C45.9883 0.614161 44.6978 0.204712 43.0296 0.204712H37.6001C37.1752 0.204712 36.8447 0.330696 36.5929 0.551169C36.3411 0.787389 36.2152 1.1181 36.2152 1.54329V14.4724ZM45.6106 4.99211C45.6106 6.69289 44.6191 7.55903 42.6677 7.55903L39.0795 7.54329V2.42518H42.6677C44.6191 2.42518 45.6106 3.29132 45.6106 4.99211Z" fill="white"/> <path fill-rule="evenodd" clip-rule="evenodd" d="M62.9693 15.5276C63.2369 15.2756 63.3785 14.9921 63.3785 14.6614C63.3785 14.4567 63.3313 14.2835 63.2683 14.0787L57.1464 0.960625C57.0047 0.661413 56.8001 0.44094 56.5326 0.28346C56.2651 0.141728 55.9818 0.0629883 55.667 0.0629883C55.3523 0.0629883 55.069 0.12598 54.8015 0.28346C54.5182 0.44094 54.3136 0.677161 54.1877 0.960625L48.0815 14.0787C48.0028 14.2677 47.9556 14.4724 47.9556 14.6614C47.9556 15.0079 48.0815 15.3071 48.3647 15.5276C48.6323 15.748 48.9628 15.874 49.2933 15.874C49.5451 15.874 49.7654 15.811 49.97 15.685C50.1746 15.559 50.3319 15.3701 50.4578 15.1024L51.7955 12.1417H59.5385L60.8762 15.1024C60.9864 15.3543 61.1595 15.559 61.3641 15.685C61.5687 15.811 61.8047 15.874 62.0251 15.874C62.387 15.874 62.7018 15.748 62.9693 15.5276ZM58.5942 9.937H52.7556L55.667 3.38582L58.5942 9.937Z" fill="white"/> <path fill-rule="evenodd" clip-rule="evenodd" d="M74.3949 0.0944834C74.7254 0.0944834 75.0244 0.220468 75.2919 0.488184C75.5595 0.755901 75.6854 1.03937 75.6854 1.41732C75.6854 1.70078 75.5752 2 75.3549 2.26771L70.3346 8.3937V14.5197C70.3346 14.9764 70.2087 15.3228 69.9411 15.5905C69.6736 15.8583 69.3431 15.9685 68.9339 15.9685C68.509 15.9685 68.147 15.8425 67.8795 15.5905C67.6119 15.3386 67.486 14.9921 67.486 14.5197V8.3937L62.4972 2.25196C62.2769 1.98425 62.1667 1.70078 62.1667 1.40157C62.1667 1.05511 62.2926 0.740153 62.5601 0.472436C62.8277 0.20472 63.1424 0.0787354 63.4572 0.0787354C63.8349 0.0787354 64.1339 0.236216 64.4014 0.566924L68.9182 6.17322L73.4191 0.566924C73.6867 0.251964 74.0172 0.0944834 74.3949 0.0944834Z" fill="white"/> </g> <defs> <linearGradient id="paint0_linear_38_507" x1="82.9356" y1="17.5408" x2="90.8878" y2="13.6878" gradientUnits="userSpaceOnUse"> <stop offset="0%" stop-color="#FFE81D"/> <stop offset="0.7072" stop-color="#E89D2C"/> </linearGradient> <radialGradient id="paint1_radial_38_507" cx="0" cy="0" r="1" gradientUnits="userSpaceOnUse" gradientTransform="translate(84.4719 10.8502) scale(3.83964 4.38819)"> <stop offset="0.4185" stop-color="#123F06" stop-opacity="0.01"/> <stop offset="1" stop-color="#123F06"/> </radialGradient> <linearGradient id="paint2_linear_38_507" x1="79.3151" y1="5.78835" x2="87.8586" y2="12.3746" gradientUnits="userSpaceOnUse"> <stop offset="0.0937643" stop-color="#1FAEFF"/> <stop offset="1" stop-color="#0D7CFF"/> </linearGradient> <linearGradient id="paint3_linear_38_507" x1="90.2064" y1="17.5408" x2="98.1586" y2="13.6878" gradientUnits="userSpaceOnUse"> <stop offset="0%" stop-color="#FFE81D"/> <stop offset="0.7072" stop-color="#E89D2C"/> </linearGradient> <radialGradient id="paint4_radial_38_507" cx="0" cy="0" r="1" gradientUnits="userSpaceOnUse" gradientTransform="translate(91.7334 10.8502) scale(3.83969 4.38819)"> <stop offset="0.4185" stop-color="#123F06" stop-opacity="0.01"/> <stop offset="1" stop-color="#123F06"/> </radialGradient> <linearGradient id="paint5_linear_38_507" x1="86.5702" y1="5.78835" x2="95.1137" y2="12.3746" gradientUnits="userSpaceOnUse"> <stop offset="0.0937643" stop-color="#1FAEFF"/> <stop offset="1" stop-color="#0D7CFF"/> </linearGradient> <clipPath id="clip0_38_507"> <rect width="96" height="20" fill="white" transform="translate(0.333252)"/> </clipPath> </defs> </svg>