<svg viewBox="0 0 34 20" fill="none" xmlns="http://www.w3.org/2000/svg"> <g clip-path="url(#clip0_38_495)"> <path fill-rule="evenodd" clip-rule="evenodd" d="M12.6444 17.8278H21.3566V2.17224H12.6444V17.8278Z" fill="#FF5F00"/> <path fill-rule="evenodd" clip-rule="evenodd" d="M13.1966 10C13.1966 6.82001 14.691 3.99779 16.9855 2.17224C15.2999 0.844459 13.1688 0.0422363 10.8466 0.0422363C5.34214 0.0422363 0.888809 4.49557 0.888809 10C0.888809 15.5045 5.34214 19.9578 10.8466 19.9578C13.1699 19.9578 15.2999 19.1556 16.9866 17.8278C14.691 16.03 13.1966 13.18 13.1966 10Z" fill="#EB001B"/> <path fill-rule="evenodd" clip-rule="evenodd" d="M33.111 10C33.111 15.5045 28.6577 19.9578 23.1532 19.9578C20.8299 19.9578 18.701 19.1556 17.0132 17.8278C19.3355 16.0022 20.8021 13.1811 20.8021 10C20.8021 6.82001 19.3077 3.99779 17.0132 2.17224C18.701 0.844459 20.8299 0.0422363 23.1532 0.0422363C28.6577 0.0422363 33.111 4.52335 33.111 10Z" fill="#F79E1B"/> </g> <defs> <clipPath id="clip0_38_495"> <rect width="33.3333" height="20" fill="white" transform="translate(0.333252)"/> </clipPath> </defs> </svg>
							