<svg viewBox="0 0 20 20" fill="none" xmlns="http://www.w3.org/2000/svg">
<g clip-path="url(#clip0_38_533)">
<path d="M17.5393 11.6981C18.698 6.49142 14.1367 1.76142 8.78 2.66942C5.872 0.864753 2 2.90409 2 6.36409C2 7.16875 2.222 7.92209 2.608 8.57142C1.53133 13.7901 6.13 18.4521 11.482 17.4821C12.106 17.8121 12.818 18.0001 13.5747 18.0001C16.874 18.0001 18.9867 14.5781 17.5393 11.6981ZM10.064 15.2528C8.50266 15.2528 6.97733 14.8761 6.07466 13.5868C4.72933 11.6841 6.50333 10.7321 7.374 11.4574C8.10066 12.0701 7.87266 13.5521 10.0067 13.5521C10.9473 13.5521 12.1087 13.1508 12.1087 12.2181C12.1087 10.3414 7.94533 11.2294 6.29 9.18342C5.682 8.43409 5.56733 7.11209 6.314 6.15342C7.61533 4.47875 11.434 4.37675 13.076 5.64142C14.592 6.81475 14.1827 8.37209 12.9593 8.37209C11.488 8.37209 12.2613 6.44675 9.886 6.44675C8.164 6.44675 7.48666 7.67142 8.69933 8.26742C10.3133 9.06875 14.5327 8.81875 14.5327 12.0028C14.5273 14.2408 12.368 15.2528 10.064 15.2528Z" fill="#34D186"/>
</g>
<defs>
<clipPath id="clip0_38_533">
<rect width="16" height="16" fill="white" transform="translate(2 2)"/>
</clipPath>
</defs>
</svg>
