<svg viewBox="0 0 20 20" fill="none" xmlns="http://www.w3.org/2000/svg">
<path d="M17.1336 5.84662L17.129 5.82815C16.7555 4.31844 15.0719 2.69843 13.5257 2.3614L13.5083 2.35781C11.0075 1.88073 8.47182 1.88073 5.97153 2.35781L5.95357 2.3614C4.40795 2.69843 2.72433 4.31844 2.35037 5.82815L2.34626 5.84662C1.88458 7.95499 1.88458 10.0931 2.34626 12.2015L2.35037 12.2199C2.70838 13.6652 4.26662 15.2108 5.75505 15.6359V17.3211C5.75505 17.9311 6.49836 18.2306 6.92106 17.7905L8.62853 16.0156C8.99886 16.0363 9.36939 16.0479 9.73992 16.0479C10.9988 16.0479 12.2582 15.9289 13.5083 15.6903L13.5257 15.6867C15.0719 15.3497 16.7555 13.7297 17.129 12.22L17.1336 12.2015C17.5953 10.0931 17.5953 7.95499 17.1336 5.84662ZM15.7824 11.8957C15.5331 12.8807 14.2547 14.1052 13.239 14.3314C11.9093 14.5842 10.5691 14.6923 9.23016 14.6552C9.20354 14.6545 9.17794 14.6648 9.15937 14.6839C8.96936 14.8789 7.91266 15.9637 7.91266 15.9637L6.5866 17.3247C6.48964 17.4257 6.31933 17.357 6.31933 17.2174V14.4257C6.31933 14.3796 6.2864 14.3404 6.2411 14.3315C6.24085 14.3314 6.24059 14.3314 6.24033 14.3313C5.22462 14.1051 3.94678 12.8806 3.69695 11.8957C3.28144 9.98994 3.28144 8.05804 3.69695 6.1523C3.94678 5.16737 5.22462 3.94288 6.24033 3.71665C8.56262 3.27497 10.9172 3.27497 13.239 3.71665C14.2552 3.94288 15.5331 5.16737 15.7824 6.1523C16.1983 8.05809 16.1983 9.99 15.7824 11.8957Z" fill="#34D186"/>
<path d="M11.9494 13.1847C11.7933 13.1373 11.6444 13.1054 11.5062 13.0481C10.0742 12.4539 8.75623 11.6874 7.71225 10.5124C7.11857 9.84426 6.65391 9.08991 6.26111 8.2916C6.07485 7.91302 5.91787 7.51961 5.75787 7.12877C5.61198 6.77234 5.82687 6.40412 6.05315 6.13557C6.26547 5.88354 6.53869 5.69066 6.83458 5.54851C7.06553 5.43755 7.29334 5.50152 7.46201 5.69728C7.82664 6.12049 8.16157 6.56535 8.43279 7.05592C8.59956 7.35766 8.5538 7.7265 8.25155 7.93185C8.17809 7.98176 8.11115 8.04034 8.04271 8.09672C7.98269 8.14612 7.92621 8.19603 7.88507 8.26293C7.80987 8.38533 7.80628 8.52968 7.8547 8.66275C8.22744 9.68708 8.85569 10.4836 9.88669 10.9126C10.0517 10.9812 10.2174 11.0612 10.4074 11.039C10.7257 11.0018 10.8288 10.6527 11.0518 10.4703C11.2699 10.292 11.5485 10.2896 11.7833 10.4382C12.0182 10.5869 12.2459 10.7465 12.4722 10.9078C12.6944 11.0661 12.9156 11.221 13.1206 11.4014C13.3176 11.575 13.3855 11.8026 13.2745 12.0381C13.0714 12.4695 12.7758 12.8283 12.3494 13.0573C12.229 13.1219 12.0852 13.1429 11.9494 13.1847C12.0852 13.1429 11.7933 13.1372 11.9494 13.1847Z" fill="#34D186"/>
<path d="M9.74384 5.05498C11.617 5.10746 13.1555 6.35058 13.4852 8.20246C13.5414 8.51799 13.5614 8.84061 13.5864 9.16087C13.5969 9.29558 13.5206 9.42357 13.3752 9.42531C13.2251 9.42711 13.1575 9.30148 13.1478 9.16682C13.1285 8.90027 13.1151 8.63254 13.0784 8.3682C12.8844 6.97283 11.7718 5.8184 10.3829 5.57068C10.1739 5.53339 9.95996 5.52359 9.74825 5.50138C9.61441 5.48732 9.43912 5.47922 9.40947 5.31286C9.38459 5.17338 9.50232 5.06231 9.63514 5.05518C9.67125 5.05318 9.70757 5.05482 9.74384 5.05498C11.617 5.10746 9.70757 5.05482 9.74384 5.05498Z" fill="#34D186"/>
<path d="M12.5905 8.74517C12.5874 8.76856 12.5858 8.82356 12.5721 8.87537C12.5224 9.06343 12.2373 9.08698 12.1716 8.89717C12.1521 8.84084 12.1492 8.77677 12.1491 8.71614C12.1485 8.31939 12.0622 7.92306 11.8622 7.57787C11.6565 7.22309 11.3423 6.92484 10.9738 6.74437C10.7509 6.63526 10.5099 6.56744 10.2657 6.52702C10.1589 6.50937 10.0511 6.49865 9.9438 6.48372C9.81381 6.46567 9.7444 6.38282 9.75056 6.25473C9.75631 6.13469 9.84403 6.04835 9.97484 6.05574C10.4047 6.08016 10.8199 6.17306 11.2021 6.37543C11.9793 6.787 12.4232 7.43665 12.5528 8.30411C12.5586 8.3434 12.5681 8.38234 12.571 8.42179C12.5784 8.5192 12.583 8.61672 12.5905 8.74517C12.5874 8.76856 12.583 8.61672 12.5905 8.74517Z" fill="#34D186"/>
<path d="M11.4254 8.70001C11.2687 8.70283 11.1848 8.61608 11.1687 8.4724C11.1574 8.37221 11.1486 8.27069 11.1247 8.17322C11.0776 7.98126 10.9755 7.80336 10.814 7.68573C10.7378 7.63017 10.6514 7.5897 10.5609 7.56359C10.446 7.5304 10.3266 7.53953 10.2119 7.51142C10.0873 7.48089 10.0184 7.38004 10.038 7.26318C10.0558 7.15684 10.1593 7.07384 10.2755 7.08225C11.0017 7.13468 11.5208 7.51014 11.5949 8.36508C11.6001 8.42541 11.6063 8.48917 11.5929 8.54688C11.5699 8.64568 11.4968 8.69519 11.4254 8.70001C11.4968 8.69519 11.2687 8.70283 11.4254 8.70001Z" fill="#34D186"/>
</svg>
