<svg width="16" height="16" viewBox="0 0 16 16" fill="none" xmlns="http://www.w3.org/2000/svg">
<path d="M5.09729 2H3.26316C2.56554 2 2 2.56554 2 3.26316C2 9.19295 6.80705 14 12.7368 14C13.4345 14 14 13.4345 14 12.7368V10.9027C14 10.3575 13.6681 9.86723 13.1619 9.66474L11.4047 8.9619C10.95 8.78001 10.4322 8.86205 10.056 9.17557L9.60207 9.55383C9.0723 9.99531 8.2933 9.95997 7.80568 9.47235L6.52765 8.19432C6.04003 7.7067 6.00469 6.9277 6.44617 6.39793L6.82443 5.94402C7.13795 5.56779 7.21999 5.04997 7.0381 4.59525L6.33526 2.83815C6.13277 2.33193 5.6425 2 5.09729 2Z" stroke="white" stroke-width="1.5" stroke-linecap="round" stroke-linejoin="round"/>
</svg>
