<svg viewBox="0 0 20 20" fill="none" xmlns="http://www.w3.org/2000/svg"> <path d="M17.8023 5.45724L17.7973 5.43704C17.3888 3.78579 15.5474 2.01391 13.8563 1.64528L13.8372 1.64135C11.102 1.11955 8.32855 1.11955 5.59386 1.64135L5.57422 1.64528C3.8837 2.01391 2.04224 3.78579 1.63322 5.43704L1.62873 5.45724C1.12376 7.76326 1.12376 10.1018 1.62873 12.4079L1.63322 12.4281C2.02479 14.0088 3.72912 15.6993 5.35709 16.1642V18.0075C5.35709 18.6746 6.17009 19.0023 6.63241 18.5209L8.49996 16.5796C8.905 16.6023 9.31027 16.6149 9.71553 16.6149C11.0924 16.6149 12.4699 16.4847 13.8372 16.2238L13.8563 16.2199C15.5474 15.8512 17.3888 14.0794 17.7973 12.4281L17.8023 12.4079C18.3073 10.1018 18.3073 7.76326 17.8023 5.45724ZM16.3245 12.0735C16.0518 13.1507 14.6536 14.49 13.5426 14.7375C12.0883 15.014 10.6224 15.1322 9.15799 15.0917C9.12887 15.0909 9.10087 15.1022 9.08056 15.123C8.87274 15.3363 7.71698 16.5228 7.71698 16.5228L6.26659 18.0113C6.16055 18.1219 5.97427 18.0467 5.97427 17.8941V14.8406C5.97427 14.7901 5.93825 14.7473 5.88871 14.7376C5.88843 14.7375 5.88814 14.7375 5.88786 14.7374C4.77693 14.49 3.37929 13.1507 3.10604 12.0734C2.65157 9.989 2.65157 7.87599 3.10604 5.79158C3.37929 4.71432 4.77693 3.37502 5.88786 3.12759C8.42786 2.6445 11.0032 2.6445 13.5426 3.12759C14.6541 3.37502 16.0518 4.71432 16.3245 5.79158C16.7794 7.87604 16.7794 9.98906 16.3245 12.0735Z" fill="white"/> <path d="M12.1322 13.4832C11.9614 13.4313 11.7986 13.3965 11.6475 13.3337C10.0812 12.6839 8.63963 11.8455 7.49778 10.5604C6.84844 9.82959 6.34022 9.00452 5.9106 8.13137C5.70687 7.71729 5.53518 7.287 5.36018 6.85952C5.20061 6.46968 5.43565 6.06694 5.68314 5.77321C5.91537 5.49755 6.2142 5.28659 6.53783 5.13111C6.79043 5.00975 7.0396 5.07972 7.22408 5.29383C7.6229 5.75672 7.98923 6.24328 8.28587 6.77984C8.46828 7.10987 8.41823 7.51329 8.08764 7.73789C8.00729 7.79248 7.93407 7.85655 7.85923 7.91822C7.79358 7.97225 7.7318 8.02684 7.68681 8.10001C7.60455 8.23388 7.60062 8.39177 7.65359 8.53731C8.06127 9.65767 8.74842 10.5289 9.87608 10.9981C10.0565 11.0732 10.2378 11.1606 10.4456 11.1363C10.7938 11.0957 10.9065 10.7138 11.1505 10.5143C11.3889 10.3193 11.6936 10.3167 11.9505 10.4793C12.2074 10.6419 12.4565 10.8164 12.704 10.9928C12.947 11.166 13.189 11.3354 13.4131 11.5327C13.6286 11.7226 13.7029 11.9716 13.5815 12.2292C13.3593 12.7009 13.036 13.0934 12.5696 13.3439C12.438 13.4145 12.2807 13.4374 12.1322 13.4832C12.2807 13.4374 11.9614 13.4313 12.1322 13.4832Z" fill="white"/> <path d="M9.71971 4.59143C11.7685 4.64883 13.4512 6.00849 13.8118 8.03398C13.8733 8.3791 13.8952 8.73196 13.9225 9.08224C13.934 9.22958 13.8506 9.36957 13.6915 9.37148C13.5273 9.37344 13.4534 9.23604 13.4428 9.08875C13.4217 8.79722 13.407 8.50439 13.3668 8.21527C13.1548 6.68908 11.9378 5.42643 10.4187 5.15548C10.1901 5.11469 9.9561 5.10397 9.72454 5.07968C9.57815 5.06431 9.38643 5.05544 9.354 4.87348C9.32679 4.72093 9.45556 4.59945 9.60082 4.59165C9.64032 4.58947 9.68004 4.59126 9.71971 4.59143C11.7685 4.64883 9.68004 4.59126 9.71971 4.59143Z" fill="white"/> <path d="M12.8334 8.62735C12.83 8.65294 12.8282 8.71309 12.8133 8.76976C12.7589 8.97545 12.447 9.0012 12.3752 8.7936C12.354 8.73199 12.3508 8.66192 12.3506 8.5956C12.3499 8.16166 12.2556 7.72817 12.0368 7.35062C11.8118 6.96258 11.4682 6.63636 11.0651 6.43898C10.8214 6.31964 10.5578 6.24546 10.2907 6.20125C10.1739 6.18195 10.0559 6.17022 9.93858 6.15389C9.7964 6.13414 9.72049 6.04353 9.72722 5.90343C9.7335 5.77213 9.82945 5.6777 9.97252 5.68578C10.4427 5.71249 10.8968 5.8141 11.3148 6.03545C12.1649 6.4856 12.6504 7.19615 12.7922 8.14494C12.7986 8.18792 12.8089 8.2305 12.8121 8.27365C12.8202 8.3802 12.8252 8.48686 12.8334 8.62735C12.83 8.65294 12.8252 8.48686 12.8334 8.62735Z" fill="white"/> <path d="M11.559 8.57805C11.3876 8.58113 11.2958 8.48625 11.2782 8.3291C11.2659 8.21952 11.2562 8.10848 11.23 8.00187C11.1785 7.79192 11.0669 7.59734 10.8903 7.46868C10.8069 7.40792 10.7124 7.36365 10.6134 7.33509C10.4877 7.29878 10.3571 7.30877 10.2317 7.27803C10.0954 7.24464 10.0201 7.13433 10.0415 7.00652C10.061 6.89021 10.1742 6.79942 10.3012 6.80863C11.0956 6.86597 11.6633 7.27662 11.7443 8.21172C11.75 8.2777 11.7568 8.34744 11.7421 8.41056C11.717 8.51863 11.637 8.57277 11.559 8.57805C11.637 8.57277 11.3876 8.58113 11.559 8.57805Z" fill="white"/> </svg>
								