<svg viewBox="0 0 69 20" fill="none" xmlns="http://www.w3.org/2000/svg"> <g clip-path="url(#clip0_38_488)"> <path fill-rule="evenodd" clip-rule="evenodd" d="M24.4752 19.6875L27.9234 0.313721H33.5083L30.0588 19.6875H24.4752Z" fill="white"/> <path fill-rule="evenodd" clip-rule="evenodd" d="M49.9398 0.81375C48.8334 0.42125 47.1001 0 44.9344 0C39.4152 0 35.5281 2.6275 35.4952 6.39375C35.4637 9.1775 38.2706 10.73 40.3903 11.6575C42.5625 12.605 43.2944 13.2137 43.2839 14.0612C43.2708 15.3587 41.5467 15.9525 39.9421 15.9525C37.7069 15.9525 36.5189 15.6587 34.6844 14.9375L33.9643 14.6275L33.1811 18.965C34.486 19.5062 36.9 19.9762 39.4034 19.9987C45.2748 19.9975 49.0857 17.4025 49.1304 13.3787C49.1501 11.175 47.6625 9.4975 44.4403 8.11375C42.4849 7.22125 41.2891 6.6225 41.3022 5.71375C41.3022 4.90875 42.3154 4.0475 44.5008 4.0475C46.3274 4.02125 47.6494 4.3975 48.6822 4.79L49.1816 5.015L49.9398 0.81375Z" fill="white"/> <path fill-rule="evenodd" clip-rule="evenodd" d="M59.4618 0.31375C58.1241 0.31375 57.1569 0.70125 56.5695 1.9625L48.2919 19.6875H54.2054L55.3552 16.7188H62.4199L63.0769 19.6875H68.3333L63.7327 0.3125H59.4618V0.31375ZM56.9243 12.8425C57.3855 11.7263 59.1477 7.4275 59.1477 7.4275C59.1149 7.4775 59.6077 6.305 59.8876 5.58L60.2661 7.25C60.2661 7.25 61.3331 11.875 61.5591 12.8438H56.9243V12.8425Z" fill="white"/> <path fill-rule="evenodd" clip-rule="evenodd" d="M14.2895 13.5938L13.7981 10.9375C12.7796 7.8425 9.6166 4.49125 6.07115 2.8125L11.0056 19.6875H16.9191L25.7893 0.3125H19.8771L14.2895 13.5938Z" fill="white"/> <path fill-rule="evenodd" clip-rule="evenodd" d="M0 0.313721V0.624971C7.00679 2.22747 11.8729 6.28247 13.7994 10.9375L11.773 1.96622C11.4353 0.739971 10.4103 0.354971 9.19872 0.313721H0Z" fill="#F7981D"/> </g> <defs> <clipPath id="clip0_38_488"> <rect width="68.3333" height="20" fill="white"/> </clipPath> </defs> </svg>