<svg viewBox="0 0 20 20" fill="none" xmlns="http://www.w3.org/2000/svg"> <path fill-rule="evenodd" clip-rule="evenodd" d="M13.68 2.06279C11.5382 1.04737 8.9751 0.986974 6.77471 1.86139C5.34815 2.42026 4.08422 3.37259 3.13143 4.57032C1.93867 6.07032 1.25554 7.97371 1.25192 9.89192C1.2186 11.4315 1.61975 12.9746 2.37803 14.313C3.28953 15.9235 4.72243 17.2328 6.41377 17.986C8.14223 18.7686 10.1293 18.9519 11.9762 18.527C13.8182 18.1093 15.5083 17.0664 16.7166 15.6164C17.9945 14.096 18.7399 12.1272 18.7474 10.1388C18.7863 8.60102 18.3931 7.05732 17.6392 5.71766C16.7592 4.14417 15.3781 2.86248 13.7527 2.0853L13.7096 2.10011C13.1418 2.26244 12.5927 2.51596 12.1503 2.91376C11.3536 3.60512 10.8513 4.65541 10.9091 5.71854C11.9903 5.98886 13.0708 6.46376 13.8095 7.32598C14.2584 7.83695 14.5412 8.46265 14.6828 9.12221C14.7853 9.59968 14.8138 10.0949 14.7777 10.5772C14.6414 12.3294 13.4486 13.9696 11.7886 14.577C10.6822 14.9883 9.41522 14.9934 8.32297 14.5326C7.18944 14.0669 6.24896 13.1646 5.7147 12.0644C5.51721 11.665 5.37437 11.2424 5.28165 10.8086C5.13091 10.1034 5.11263 9.36847 5.20738 8.65516C5.43865 7.0293 6.25761 5.50961 7.42628 4.36425C8.64511 3.2207 10.2044 2.45093 11.8452 2.14197C12.4492 2.04016 13.0698 1.97047 13.68 2.06279Z" fill="white"/> </svg>