<svg viewBox="0 0 20 20" fill="none" xmlns="http://www.w3.org/2000/svg">
<path d="M2 18L3.11934 14.0245C2.39954 12.8017 2.02056 11.4103 2.02056 9.98107C2.02056 5.58029 5.60086 2 10.0016 2C14.4024 2 17.9827 5.58029 17.9827 9.98107C17.9827 14.3819 14.4024 17.9621 10.0016 17.9621C8.63038 17.9621 7.28766 17.6111 6.09983 16.9446L2 18ZM6.30942 15.4927L6.55372 15.6418C7.58937 16.2741 8.78166 16.6083 10.0016 16.6083C13.6559 16.6083 16.6288 13.6353 16.6288 9.98107C16.6288 6.32682 13.6559 3.35385 10.0016 3.35385C6.34738 3.35385 3.37441 6.32682 3.37441 9.98107C3.37441 11.2543 3.73629 12.4908 4.42084 13.5568L4.58536 13.813L3.94078 16.1024L6.30942 15.4927Z" fill="#34D186"/>
<path d="M7.75971 6.26647L7.24183 6.23824C7.07917 6.22937 6.91962 6.28372 6.79667 6.39053C6.5456 6.60855 6.14416 7.03005 6.02086 7.57931C5.83698 8.39829 6.12114 9.40115 6.85659 10.404C7.59203 11.4069 8.96258 13.0114 11.3861 13.6967C12.1671 13.9176 12.7815 13.7687 13.2555 13.4655C13.6309 13.2253 13.8897 12.8399 13.9829 12.4041L14.0656 12.0179C14.0919 11.8952 14.0296 11.7706 13.9155 11.7181L12.1653 10.9113C12.0517 10.859 11.9169 10.8921 11.8405 10.9911L11.1534 11.8819C11.1015 11.9492 11.0127 11.9758 10.9324 11.9476C10.4619 11.7823 8.88571 11.1221 8.02085 9.4562C7.98335 9.38395 7.99267 9.29625 8.04587 9.23462L8.70254 8.47496C8.76963 8.39739 8.78658 8.28833 8.74627 8.19406L7.99182 6.42899C7.95166 6.33502 7.86165 6.27204 7.75971 6.26647Z" fill="#34D186"/>
</svg>
