<svg viewBox="0 0 20 20" fill="none" xmlns="http://www.w3.org/2000/svg">
<path d="M17.1831 6.25092C17.0103 5.60831 16.5036 5.10175 15.8611 4.92871C14.6873 4.60754 9.992 4.60754 9.992 4.60754C9.992 4.60754 5.29691 4.60754 4.12311 4.91653C3.49295 5.08939 2.97394 5.6084 2.80109 6.25092C2.49219 7.42462 2.49219 9.85873 2.49219 9.85873C2.49219 9.85873 2.49219 12.3051 2.80109 13.4666C2.97412 14.1091 3.48059 14.6156 4.1232 14.7887C5.30926 15.1099 9.99219 15.1099 9.99219 15.1099C9.99219 15.1099 14.6873 15.1099 15.8611 14.8009C16.5037 14.628 17.0103 14.1214 17.1833 13.4789C17.4921 12.3051 17.4921 9.87109 17.4921 9.87109C17.4921 9.87109 17.5045 7.42462 17.1831 6.25092ZM8.49713 12.1075V7.61002L12.4015 9.85873L8.49713 12.1075Z" fill="#34D186"/>
</svg>
